<svg height="512" viewBox="0 0 128 128" width="512" xmlns="http://www.w3.org/2000/svg" xmlns:xlink="http://www.w3.org/1999/xlink"><linearGradient id="a" gradientUnits="userSpaceOnUse" x1="102.438" x2="17.847" y1="106.171" y2="21.58"><stop offset="0" stop-color="#e8555f"/><stop offset="1" stop-color="#fdbd3f"/></linearGradient><path d="m77.24 91.859a1.747 1.747 0 0 1 0-2.469 1.8 1.8 0 0 1 2.47 0 1.749 1.749 0 0 1 0 2.469 1.722 1.722 0 0 1 -2.47 0zm-35.4-2.469a1.75 1.75 0 1 0 2.48 0 1.821 1.821 0 0 0 -2.48 0zm17.7-15.22a1.75 1.75 0 1 0 0-2.48 1.759 1.759 0 0 0 0 2.48zm2.48 35.39a1.75 1.75 0 1 0 -2.48 0 1.75 1.75 0 0 0 2.48 0zm-4.3 3.557a1.751 1.751 0 1 0 -.459 3.471q.64.084 1.292.139a1.75 1.75 0 0 0 .286-3.489q-.561-.047-1.116-.121zm8.6 3.118a26.563 26.563 0 1 0 -15.577-1.383 1.75 1.75 0 1 0 1.326-3.239 23.043 23.043 0 1 1 13.521 1.2 1.749 1.749 0 1 0 .73 3.421zm3.9-23.178a3.963 3.963 0 0 0 0-5.6 1.75 1.75 0 0 0 -2.475 2.475.463.463 0 0 1 0 .649l-6.647 6.646a.465.465 0 0 1 -.649 0l-6.647-6.647a.462.462 0 0 1 0-.649l6.62-6.62c.239-.177.464-.24.676-.028a1.75 1.75 0 1 0 2.482-2.473 3.96 3.96 0 0 0 -5.6 0l-6.647 6.648a3.963 3.963 0 0 0 0 5.6l6.647 6.648a3.967 3.967 0 0 0 5.6 0zm-25.513-38.418a1.751 1.751 0 0 0 2.475 0 3.974 3.974 0 0 0 0-5.61l-6.637-6.636a4.049 4.049 0 0 0 -5.609 0l-6.636 6.636a3.973 3.973 0 0 0 0 5.61l6.637 6.636a1.75 1.75 0 1 0 2.474-2.475l-6.637-6.637a.457.457 0 0 1 0-.66l6.637-6.637a.4.4 0 0 1 .659 0l6.636 6.634a.457.457 0 0 1 0 .66 1.75 1.75 0 0 0 .001 2.479zm9.493-3.679a1.754 1.754 0 1 0 2.48 0 1.821 1.821 0 0 0 -2.48 0zm-35.4 0a1.754 1.754 0 1 0 2.48 0 1.821 1.821 0 0 0 -2.48 0zm20.18-15.22a1.75 1.75 0 1 0 -2.48 0 1.751 1.751 0 0 0 2.48 0zm-17.622-15.393c-.448.233-.891.477-1.328.728a1.75 1.75 0 0 0 1.748 3.033q.59-.341 1.2-.656a1.75 1.75 0 1 0 -1.616-3.105zm76.992 22.6a1.75 1.75 0 1 0 -1.065 3.334q.454.146.9.31a1.75 1.75 0 1 0 1.209-3.291c-.346-.124-.694-.243-1.044-.356zm11.821 54.681q.507-.342 1-.7a1.75 1.75 0 1 0 -2.065-2.826c-.295.214-.593.426-.9.631a1.75 1.75 0 1 0 1.961 2.9zm-19.908-64.874a35.148 35.148 0 0 0 -19.575 5.894 35.524 35.524 0 0 0 -40.669-21.458 1.749 1.749 0 1 0 .758 3.415 32.3 32.3 0 0 1 6.964-.759 31.965 31.965 0 0 1 31.987 31.988v.226a31.6 31.6 0 0 1 -.258 3.8 34.268 34.268 0 0 0 -7.292-1.051 35.515 35.515 0 0 0 -29.207 13.391 1.75 1.75 0 0 0 2.74 2.178 31.79 31.79 0 1 1 -3.728 5.922 1.771 1.771 0 0 0 -1.058-2.433 23.057 23.057 0 1 1 29.739-24.482 1.75 1.75 0 0 0 3.48-.367 26.555 26.555 0 1 0 -36.1 27.534 35.689 35.689 0 0 0 -1.709 5.157 31.977 31.977 0 0 1 -12.116-51.552 1.75 1.75 0 0 0 -2.574-2.373 35.5 35.5 0 0 0 14 57.423 35.477 35.477 0 0 0 68.008 18.354 35.2 35.2 0 0 0 10.452-2.632 1.75 1.75 0 0 0 -1.365-3.223 31.676 31.676 0 0 1 -7.811 2.181 35.154 35.154 0 0 0 1.1-5.755 26.524 26.524 0 0 0 9.187-47.827 1.749 1.749 0 1 0 -1.975 2.888 23.045 23.045 0 0 1 -6.987 41.307 34.965 34.965 0 0 0 -2.554-13.464l6.006-6a4 4 0 0 0 -.008-5.6l-6.638-6.627a3.942 3.942 0 0 0 -5.6-.014l-1.072 1.065a1.75 1.75 0 1 0 2.463 2.487l1.089-1.079a.388.388 0 0 1 .643.008l6.639 6.629a.472.472 0 0 1 .007.665l-5.094 5.087a35.389 35.389 0 0 0 -19.267-16.757 35.7 35.7 0 0 0 .341-4.13 22.976 22.976 0 0 1 17.054-7.58 1.75 1.75 0 0 0 0-3.5 26.469 26.469 0 0 0 -17.255 6.39 34.9 34.9 0 0 0 -1.158-5.963 31.673 31.673 0 0 1 18.413-5.863 31.99 31.99 0 0 1 23.937 53.214 1.75 1.75 0 1 0 2.617 2.324 35.49 35.49 0 0 0 -26.554-59.038zm16.457 37.1a1.75 1.75 0 1 0 0-2.48 1.753 1.753 0 0 0 0 2.476zm-17.7-20.17a1.75 1.75 0 1 0 2.481 0 1.753 1.753 0 0 0 -2.482-.004z" fill="url(#a)"/></svg>